<svg xmlns="http://www.w3.org/2000/svg" aria-hidden="true" style="position:absolute;width:0;height:0;overflow:hidden"><defs><symbol id="icon-checkbox" viewBox="0 0 32 32"><path fill="#f4f4fd" d="M22.92 8.98a1.823 1.823 0 0 1 1.198-.446h.023-.001.002c.466 0 .891.174 1.214.462l-.002-.002c.309.275.508.669.524 1.109V10.139c0 .431-.176.82-.46 1.101l-9.31 10.748a1.768 1.768 0 0 1-.556.372l-.012.004a1.867 1.867 0 0 1-1.954-.335l.002.002-6.174-5.7a1.632 1.632 0 0 1-.402-.513l-.004-.009a1.507 1.507 0 0 1 .358-1.798l.002-.001c.164-.151.358-.271.572-.352l.012-.004a1.88 1.88 0 0 1 1.381.027l-.012-.005c.221.091.409.218.568.374l4.886 4.508 8.104-9.53a.7.7 0 0 1 .046-.048h-.002z" style="fill:var(--color1, #f4f4fd)"/><path fill="none" stroke="#2e2f42" stroke-width="2.5" d="M4 1.25h24A2.75 2.75 0 0 1 30.75 4v24A2.75 2.75 0 0 1 28 30.75H4A2.75 2.75 0 0 1 1.25 28V4A2.75 2.75 0 0 1 4 1.25z" style="stroke:var(--color2, #2e2f42)"/></symbol><symbol id="icon-icon-send" viewBox="0 0 38 32"><path fill="#fff" d="M38.4 0 0 18l12.272 3.787L31.2 7 16.803 23.186l.011.005-.014-.005V32l6.882-6.691L32.402 28 38.4 0z" style="fill:var(--color3, #fff)"/></symbol><symbol id="icon-modal-human" viewBox="0 0 32 32"><path d="M16 16a8 8 0 0 0 0-16 8 8 0 0 0 0 16zm0 4c-5.339 0-16 2.68-16 8v2c0 1.099.901 2 2 2h28c1.099 0 2-.901 2-2v-2c0-5.32-10.661-8-16-8z"/></symbol><symbol id="icon-modal-mail" viewBox="0 0 43 32"><path d="M37.333 0h-32c-2.2 0-3.981 1.8-3.981 4l-.019 24c0 2.2 1.8 4 4 4h32c2.2 0 4-1.8 4-4V4c0-2.2-1.8-4-4-4zm-.8 8.501-14.139 8.837a2.02 2.02 0 0 1-2.129-.005l.009.005-14.141-8.84A1.7 1.7 0 1 1 7.94 5.621l-.006-.004 13.4 8.381 13.4-8.381a1.7 1.7 0 1 1 1.808 2.876l-.008.004z"/></symbol><symbol id="icon-modal-tel" viewBox="0 0 32 32"><path d="m28.864 21.822-4.524-.517a3.534 3.534 0 0 0-2.922 1.017l-3.276 3.276c-5.081-2.621-9.119-6.659-11.671-11.59l-.07-.149 3.298-3.296a3.531 3.531 0 0 0 1.012-2.937l.002.017-.517-4.49A3.568 3.568 0 0 0 6.655 0H3.569C1.555 0-.118 1.674.007 3.687c.943 15.212 13.11 27.362 28.305 28.308 2.014.123 3.687-1.551 3.687-3.564v-3.102a3.53 3.53 0 0 0-3.12-3.506l-.016-.002z"/></symbol></defs></svg>