<svg xmlns="http://www.w3.org/2000/svg" aria-hidden="true" style="position:absolute;width:0;height:0;overflow:hidden"><defs><symbol id="icon-facebook" viewBox="0 0 32 32"><path d="M21.329 5.313h2.921V.225C23.746.156 22.013 0 19.994 0c-4.212 0-7.097 2.649-7.097 7.519V12H8.249v5.688h4.648V32h5.699V17.689h4.46l.708-5.688h-5.169V8.082c.001-1.644.444-2.769 2.735-2.769z"/></symbol><symbol id="icon-instagram" viewBox="0 0 32 32"><path d="M31.969 9.408c-.076-1.7-.351-2.869-.744-3.883a7.845 7.845 0 0 0-1.849-2.836l-.001-.001A7.89 7.89 0 0 0 26.597.862l-.054-.018C25.524.451 24.362.173 22.662.1 20.947.02 20.405 0 16.061 0c-4.345 0-4.889.019-6.596.093-1.7.076-2.869.351-3.881.744a7.84 7.84 0 0 0-2.837 1.849l-.001.001A7.89 7.89 0 0 0 .92 5.465l-.018.054C.509 6.538.234 7.7.158 9.399c-.08 1.715-.1 2.259-.1 6.603 0 4.345.019 4.889.093 6.596.076 1.7.351 2.868.745 3.881a7.93 7.93 0 0 0 1.848 2.838l.001.001a7.867 7.867 0 0 0 2.832 1.844c1.019.393 2.181.668 3.883.744 1.707.075 2.251.093 6.595.093s4.888-.019 6.595-.093c1.701-.076 2.869-.351 3.883-.744a8.231 8.231 0 0 0 4.662-4.627l.019-.055c.395-1.019.669-2.181.744-3.881.075-1.707.093-2.251.093-6.596 0-4.344-.005-4.888-.08-6.595zm-2.882 13.065c-.068 1.563-.331 2.407-.549 2.969a5.342 5.342 0 0 1-3.003 3.025l-.036.013c-.563.22-1.413.481-2.969.551-1.688.075-2.193.093-6.464.093-4.269 0-4.781-.019-6.464-.093-1.563-.069-2.407-.331-2.969-.551a4.945 4.945 0 0 1-1.836-1.192l-.001-.001a4.982 4.982 0 0 1-1.182-1.803l-.011-.034c-.22-.563-.481-1.413-.551-2.969-.075-1.688-.093-2.195-.093-6.464 0-4.271.019-4.783.093-6.464.069-1.563.331-2.407.551-2.969a4.887 4.887 0 0 1 1.2-1.839 4.982 4.982 0 0 1 1.803-1.182l.034-.011c.563-.219 1.413-.48 2.969-.551 1.688-.075 2.195-.093 6.464-.093 4.276 0 4.781.019 6.464.093 1.563.069 2.407.332 2.969.551a4.932 4.932 0 0 1 1.837 1.193c.532.52.937 1.144 1.195 1.839.219.563.48 1.413.549 2.969.076 1.688.093 2.193.093 6.464 0 4.269-.017 4.769-.093 6.457z"/><path d="M16.059 7.783a8.224 8.224 0 0 0-8.22 8.22 8.222 8.222 0 0 0 8.22 8.221 8.222 8.222 0 0 0 8.221-8.221 8.223 8.223 0 0 0-8.221-8.22zm0 13.553a5.333 5.333 0 0 1 .001-10.666h.001a5.333 5.333 0 0 1-.001 10.666h-.001zM26.524 7.457l.001.051a1.92 1.92 0 0 1-3.84 0l.001-.053v.003a1.92 1.92 0 0 1 3.838-.002v.003z"/></symbol><symbol id="icon-linkedin" viewBox="0 0 32 32"><path d="M31.992 32H32V20.263c0-5.741-1.236-10.164-7.948-10.164-3.227 0-5.392 1.771-6.276 3.449h-.093v-2.913h-6.364V32h6.627V21.421c0-2.785.528-5.479 3.977-5.479 3.399 0 3.449 3.179 3.449 5.657v10.4h6.62zM.528 10.636h6.635V32H.528V10.636zM3.843 0A3.845 3.845 0 0 0 0 3.843c0 2.121 1.721 3.879 3.843 3.879s3.843-1.757 3.843-3.879A3.846 3.846 0 0 0 3.843 0z"/></symbol><symbol id="icon-twitter" viewBox="0 0 38 32"><path d="M38.4 4.093a16.428 16.428 0 0 1-4.536 1.245 7.866 7.866 0 0 0 3.448-4.298l.016-.055a15.472 15.472 0 0 1-4.891 1.889l-.101.017a7.87 7.87 0 0 0-13.617 5.377v.007c0 .624.053 1.222.182 1.794-6.546-.318-12.336-3.456-16.227-8.234a7.841 7.841 0 0 0-1.077 3.979v.001a7.883 7.883 0 0 0 3.496 6.542 7.748 7.748 0 0 1-3.596-.988l.039.02v.086A7.911 7.911 0 0 0 7.791 19.2l.052.009a7.819 7.819 0 0 1-2.064.259l-.132.001a6.98 6.98 0 0 1-1.404-.142l.045.008c1.021 3.117 3.915 5.408 7.357 5.483A15.714 15.714 0 0 1 1.9 28.176h-.016.001c-.646 0-1.266-.029-1.885-.109C3.392 30.282 7.544 31.6 12.005 31.6h.076-.004c14.486 0 22.406-12 22.406-22.402 0-.347-.013-.683-.029-1.018a15.852 15.852 0 0 0 3.91-4.031l.036-.057z"/></symbol></defs></svg>